# xmcd CD database file
#
# Track frame offsets:
#	150
#	21451
#	39413
#	53402
#	69679
#	88479
#	104376
#	124007
#	147355
#	161126
#	179233
#	192738
#	210471
#
# Disc length: 3053 seconds
#
# Revision: 3
# Processed by: cddbd v1.4PL0 Copyright (c) Steve Scherf et al.
# Submitted via: CDex 1.50Beta5
#
DISCID=ca0beb0d
DTITLE=Monica Ramos - BEHIND THAT LIGHT
DYEAR=2002
DGENRE=New Age
TTITLE0=Streeto
TTITLE1=Bafo Esa Luz
TTITLE2=Creo/ Faith
TTITLE3=La Barca Azul/ The Blue Raft
TTITLE4=Joburg
TTITLE5=Angelina
TTITLE6=Ya Te Vas/ Now You're Gone
TTITLE7=Lamento/ Lament
TTITLE8=Tu Dulce Mirar/ Your Sweet Glance
TTITLE9=Mami/ Mother
TTITLE10=Tuls Palabras/ Your Words
TTITLE11=Para un Angelito/ For a Little Angel
TTITLE12=Para un Angelito(Dexra K radio nux)
EXTD=YEAR: 2002
EXTT0=
EXTT1=
EXTT2=
EXTT3=
EXTT4=
EXTT5=
EXTT6=
EXTT7=
EXTT8=
EXTT9=
EXTT10=
EXTT11=
EXTT12=
PLAYORDER=
